<?xml version="1.0" standalone="no"?>
<!DOCTYPE svg PUBLIC "-//W3C//DTD SVG 1.1//EN"
	"http://www.w3.org/Graphics/SVG/1.1/DTD/svg11.dtd">
<svg xmlns="http://www.w3.org/2000/svg" version="1.1"
	xmlns:xlink="http://www.w3.org/1999/xlink"
	color="black"
	width="793.80px" height="300.66px">
<style type="text/css">
.fill {fill: currentColor}
.stroke {stroke: currentColor; fill: none}
text{white-space:pre; fill:currentColor}
</style>
<title> page 1</title>
<!-- Creator: abcm2ps-8.14.12 -->
<!-- CreationDate: Sep 1, 2022 18:26 -->
<!-- CommandLine: - -O 2.svg -v -->
<g stroke-width="0.70">
<defs>
<g id="rdots" class="fill">
	<circle cx="0" cy="-9" r="1.2"/>
	<circle cx="0" cy="-15" r="1.2"/>
</g>
</defs>
<use x="118.60" y="81.00" xlink:href="#rdots"/>
<path class="stroke" stroke-width="1"
	d="M114.60 81.00v-24.00"/>
<path class="stroke" stroke-width="3"
	d="M110.10 81.00v-24.00"/>
<path class="stroke" stroke-width="1"
	d="M284.00 81.00v-24.00"/>
<path class="stroke" stroke-width="1"
	d="M448.30 81.00v-24.00"/>
<path class="stroke" stroke-width="1"
	d="M612.60 81.00v-24.00"/>
<path class="stroke" stroke-width="1"
	d="M774.90 81.00v-24.00"/>
<path d="m18.90 81.00
	h756.00
	M18.90 75.00
	h756.00
	M18.90 69.00
	h756.00
	M18.90 63.00
	h756.00
	M18.90 57.00
	h756.00
	" class="stroke"/>
<defs>
<path id="utclef" class="fill" d="m-50 -90
	c-72 -41 -72 -158 52 -188
	150 -10 220 188 90 256
	-114 52 -275 0 -293 -136
	-15 -181 93 -229 220 -334
	88 -87 79 -133 62 -210
	-51 33 -94 105 -89 186
	17 267 36 374 49 574
	6 96 -19 134 -77 135
	-80 1 -126 -93 -61 -133
	85 -41 133 101 31 105
	23 17 92 37 90 -92
	-10 -223 -39 -342 -50 -617
	0 -90 0 -162 96 -232
	56 72 63 230 22 289
	-74 106 -257 168 -255 316
	9 153 148 185 252 133
	86 -65 29 -192 -80 -176
	-71 12 -105 67 -59 124"/>
<use id="tclef" transform="translate(0,6) scale(0.045)"
	xlink:href="#utclef"/>
</defs>
<use x="30.90" y="75.00" xlink:href="#tclef"/>
<defs>
<path id="uflat" class="fill" d="
	m100 -746
	h32
	v734
	l-32 4
	m32 -332
	c46 -72 152 -90 208 -20
	100 110 -120 326 -208 348
	m0 -28
	c54 0 200 -206 130 -290
	-50 -60 -130 -4 -130 34"/>
<use id="ft0" transform="translate(-3.5,3.5) scale(0.018)"
	xlink:href="#uflat"/>
</defs>
<use x="45.90" y="69.00" xlink:href="#ft0"/>
<g style="font:bold 16px serif"
	transform="translate(61.90,80.50) scale(1.2,1)">
	<text text-anchor="middle">4</text>
	<text y="-12" text-anchor="middle">4</text>
</g>
<path class="fill"
	d="M83.10 50.70l19.90 -2.40v3.20l-19.90 2.40"/>
<defs>
<ellipse id="hd" rx="4.1" ry="2.9"
	transform="rotate(-20)" class="fill"/>
</defs>
<use x="79.90" y="72.00" xlink:href="#hd"/>
<path d="M83.40 72.00v-20.40" class="stroke"/>
<use x="99.10" y="69.00" xlink:href="#hd"/>
<path d="M102.60 69.00v-19.60" class="stroke"/>
<path class="fill"
	d="M128.30 88.20l58.30 0.00v-3.20l-58.30 -0.00"/>
<use x="132.10" y="66.00" xlink:href="#hd"/>
<path d="M128.60 66.00v21.20" class="stroke"/>
<use x="151.30" y="63.00" xlink:href="#hd"/>
<path d="M147.80 63.00v24.20" class="stroke"/>
<use x="170.50" y="66.00" xlink:href="#hd"/>
<path d="M167.00 66.00v21.20" class="stroke"/>
<use x="189.70" y="69.00" xlink:href="#hd"/>
<path d="M186.20 69.00v18.20" class="stroke"/>
<path class="fill"
	d="M207.20 91.30l58.30 -9.00v-3.20l-58.30 9.00"/>
<use x="211.00" y="72.00" xlink:href="#hd"/>
<path d="M207.50 72.00v18.20" class="stroke"/>
<use x="230.20" y="66.00" xlink:href="#hd"/>
<path d="M226.70 66.00v21.20" class="stroke"/>
<use x="249.40" y="57.00" xlink:href="#hd"/>
<path d="M245.90 57.00v27.20" class="stroke"/>
<defs>
<path id="hl" class="stroke" d="m-6 0h12"/>
</defs>
<use x="268.70" y="51.00" xlink:href="#hl"/>
<use x="268.70" y="51.00" xlink:href="#hd"/>
<path d="M265.20 51.00v30.30" class="stroke"/>
<path class="fill"
	d="M292.60 78.00l58.30 0.00v-3.20l-58.30 -0.00"/>
<use x="296.50" y="54.00" xlink:href="#hd"/>
<path d="M293.00 54.00v23.00" class="stroke"/>
<use x="315.70" y="57.00" xlink:href="#hd"/>
<path d="M312.20 57.00v20.00" class="stroke"/>
<use x="334.90" y="54.00" xlink:href="#hd"/>
<path d="M331.40 54.00v23.00" class="stroke"/>
<use x="354.10" y="60.00" xlink:href="#hd"/>
<path d="M350.60 60.00v17.00" class="stroke"/>
<path class="fill"
	d="M371.50 78.50l58.30 6.70v-3.20l-58.30 -6.70"/>
<use x="375.40" y="51.00" xlink:href="#hl"/>
<use x="375.40" y="51.00" xlink:href="#hd"/>
<path d="M371.90 51.00v26.60" class="stroke"/>
<use x="394.60" y="57.00" xlink:href="#hd"/>
<path d="M391.10 57.00v22.80" class="stroke"/>
<use x="413.80" y="60.00" xlink:href="#hd"/>
<path d="M410.30 60.00v22.00" class="stroke"/>
<use x="433.00" y="66.00" xlink:href="#hd"/>
<path d="M429.50 66.00v18.20" class="stroke"/>
<path class="fill"
	d="M456.90 84.00l58.30 0.00v-3.20l-58.30 -0.00"/>
<use x="460.80" y="63.00" xlink:href="#hd"/>
<path d="M457.30 63.00v20.00" class="stroke"/>
<use x="480.00" y="66.00" xlink:href="#hd"/>
<path d="M476.50 66.00v17.00" class="stroke"/>
<use x="499.20" y="57.00" xlink:href="#hd"/>
<path d="M495.70 57.00v26.00" class="stroke"/>
<use x="518.40" y="66.00" xlink:href="#hd"/>
<path d="M514.90 66.00v17.00" class="stroke"/>
<path class="fill"
	d="M535.90 84.00l58.30 0.00v-3.20l-58.30 -0.00"/>
<use x="539.70" y="63.00" xlink:href="#hd"/>
<path d="M536.20 63.00v20.00" class="stroke"/>
<use x="558.90" y="57.00" xlink:href="#hd"/>
<path d="M555.40 57.00v26.00" class="stroke"/>
<use x="578.10" y="60.00" xlink:href="#hd"/>
<path d="M574.60 60.00v23.00" class="stroke"/>
<use x="597.30" y="66.00" xlink:href="#hd"/>
<path d="M593.80 66.00v17.00" class="stroke"/>
<path class="fill"
	d="M621.30 85.00l58.30 6.90v-3.20l-58.30 -6.90"/>
<use x="625.10" y="63.00" xlink:href="#hd"/>
<path d="M621.60 63.00v21.10" class="stroke"/>
<use x="644.30" y="66.00" xlink:href="#hd"/>
<path d="M640.80 66.00v20.40" class="stroke"/>
<use x="663.60" y="69.00" xlink:href="#hd"/>
<path d="M660.10 69.00v19.60" class="stroke"/>
<use x="682.80" y="72.00" xlink:href="#hd"/>
<path d="M679.30 72.00v18.90" class="stroke"/>
<path class="fill"
	d="M705.10 54.00l58.30 0.00v3.20l-58.30 -0.00"/>
<use x="702.00" y="75.00" xlink:href="#hd"/>
<path d="M705.50 75.00v-20.00" class="stroke"/>
<use x="721.20" y="78.00" xlink:href="#hd"/>
<path d="M724.70 78.00v-23.00" class="stroke"/>
<use x="740.40" y="75.00" xlink:href="#hd"/>
<path d="M743.90 75.00v-20.00" class="stroke"/>
<use x="759.60" y="72.00" xlink:href="#hd"/>
<path d="M763.10 72.00v-17.00" class="stroke"/>
</g>
<g stroke-width="0.70">
<use x="70.40" y="156.00" xlink:href="#rdots"/>
<path class="stroke" stroke-width="1"
	d="M66.40 156.00v-24.00"/>
<path class="stroke" stroke-width="3"
	d="M61.90 156.00v-24.00"/>
<path class="stroke" stroke-width="1"
	d="M215.70 156.00v-24.00"/>
<path class="stroke" stroke-width="1"
	d="M367.70 156.00v-24.00"/>
<path class="stroke" stroke-width="1"
	d="M520.00 156.00v-24.00"/>
<path class="stroke" stroke-width="3"
	d="M666.20 156.00v-24.00"/>
<path class="stroke" stroke-width="1"
	d="M661.70 156.00v-24.00"/>
<use x="657.70" y="156.00" xlink:href="#rdots"/>
<path class="stroke" stroke-width="1"
	d="M774.90 156.00v-24.00"/>
<path class="stroke" stroke-width="1"
	d="M771.90 156.00v-24.00"/>
<path d="m18.90 156.00
	h756.00
	M18.90 150.00
	h756.00
	M18.90 144.00
	h756.00
	M18.90 138.00
	h756.00
	M18.90 132.00
	h756.00
	" class="stroke"/>
</g>
<g stroke-width="0.70" style="font:13.00px serif">
<text x="524.00" y="117.40">1</text>
<path class="stroke"
	d="M520.00 106.00m0 20v-20h139.70v20"/>
<text x="671.70" y="117.40">2</text>
<path class="stroke"
	d="M667.70 106.00m0 20v-20h107.20v20"/>
<use x="30.90" y="150.00" xlink:href="#tclef"/>
<use x="45.90" y="144.00" xlink:href="#ft0"/>
<path class="fill"
	d="M87.10 127.90l53.60 -6.80v3.20l-53.60 6.80"/>
<use x="83.90" y="150.00" xlink:href="#hd"/>
<path d="M87.40 150.00v-21.10" class="stroke"/>
<use x="101.50" y="147.00" xlink:href="#hd"/>
<path d="M105.00 147.00v-20.40" class="stroke"/>
<use x="119.20" y="144.00" xlink:href="#hd"/>
<path d="M122.70 144.00v-19.60" class="stroke"/>
<use x="136.80" y="141.00" xlink:href="#hd"/>
<path d="M140.30 141.00v-18.90" class="stroke"/>
<use x="156.60" y="138.00" xlink:href="#hd"/>
<path d="M153.10 138.00v21.00" class="stroke"/>
<path class="fill"
	d="M180.00 153.30l18.30 2.30v-3.20l-18.30 -2.30"/>
<use x="183.80" y="132.00" xlink:href="#hd"/>
<path d="M180.30 132.00v20.40" class="stroke"/>
<use x="201.40" y="135.00" xlink:href="#hd"/>
<path d="M197.90 135.00v19.60" class="stroke"/>
<path class="fill"
	d="M224.30 160.10l53.60 6.80v-3.20l-53.60 -6.80"/>
<use x="228.20" y="138.00" xlink:href="#hd"/>
<path d="M224.70 138.00v21.10" class="stroke"/>
<use x="245.80" y="141.00" xlink:href="#hd"/>
<path d="M242.30 141.00v20.40" class="stroke"/>
<use x="263.40" y="144.00" xlink:href="#hd"/>
<path d="M259.90 144.00v19.60" class="stroke"/>
<use x="281.10" y="147.00" xlink:href="#hd"/>
<path d="M277.60 147.00v18.90" class="stroke"/>
<path class="fill"
	d="M296.70 166.20l53.60 0.00v-3.20l-53.60 -0.00"/>
<use x="300.60" y="144.00" xlink:href="#hd"/>
<path d="M297.10 144.00v21.20" class="stroke"/>
<use x="318.20" y="141.00" xlink:href="#hd"/>
<path d="M314.70 141.00v24.20" class="stroke"/>
<use x="335.90" y="144.00" xlink:href="#hd"/>
<path d="M332.40 144.00v21.20" class="stroke"/>
<use x="353.50" y="147.00" xlink:href="#hd"/>
<path d="M350.00 147.00v18.20" class="stroke"/>
<path class="fill"
	d="M383.40 127.90l53.60 -6.80v3.20l-53.60 6.80"/>
<use x="380.20" y="150.00" xlink:href="#hd"/>
<path d="M383.70 150.00v-21.10" class="stroke"/>
<use x="397.90" y="147.00" xlink:href="#hd"/>
<path d="M401.40 147.00v-20.40" class="stroke"/>
<use x="415.50" y="144.00" xlink:href="#hd"/>
<path d="M419.00 144.00v-19.60" class="stroke"/>
<use x="433.20" y="141.00" xlink:href="#hd"/>
<path d="M436.70 141.00v-18.90" class="stroke"/>
<path class="fill"
	d="M449.00 156.30l53.60 0.00v-3.20l-53.60 -0.00"/>
<use x="452.90" y="138.00" xlink:href="#hd"/>
<path d="M449.40 138.00v17.30" class="stroke"/>
<use x="470.50" y="135.00" xlink:href="#hd"/>
<path d="M467.00 135.00v20.30" class="stroke"/>
<use x="488.20" y="132.00" xlink:href="#hd"/>
<path d="M484.70 132.00v23.30" class="stroke"/>
<use x="505.80" y="135.00" xlink:href="#hd"/>
<path d="M502.30 135.00v20.30" class="stroke"/>
<path class="fill"
	d="M528.70 159.00l53.60 0.00v-3.20l-53.60 -0.00"/>
<use x="532.50" y="138.00" xlink:href="#hd"/>
<path d="M529.00 138.00v20.00" class="stroke"/>
<use x="550.20" y="132.00" xlink:href="#hd"/>
<path d="M546.70 132.00v26.00" class="stroke"/>
<use x="567.80" y="135.00" xlink:href="#hd"/>
<path d="M564.30 135.00v23.00" class="stroke"/>
<use x="585.50" y="141.00" xlink:href="#hd"/>
<path d="M582.00 141.00v17.00" class="stroke"/>
<use x="605.00" y="138.00" xlink:href="#hd"/>
<path d="M601.50 138.00v21.00" class="stroke"/>
<path class="fill"
	d="M632.70 126.00l18.30 0.00v3.20l-18.30 -0.00"/>
<use x="629.60" y="147.00" xlink:href="#hd"/>
<path d="M633.10 147.00v-20.00" class="stroke"/>
<use x="647.20" y="147.00" xlink:href="#hd"/>
<path d="M650.70 147.00v-20.00" class="stroke"/>
<path class="fill"
	d="M676.40 160.90l53.60 -6.80v-3.20l-53.60 6.80"/>
<use x="680.20" y="141.00" xlink:href="#hd"/>
<path d="M676.70 141.00v18.90" class="stroke"/>
<use x="697.80" y="138.00" xlink:href="#hd"/>
<path d="M694.30 138.00v19.60" class="stroke"/>
<use x="715.50" y="135.00" xlink:href="#hd"/>
<path d="M712.00 135.00v20.40" class="stroke"/>
<use x="733.10" y="132.00" xlink:href="#hd"/>
<path d="M729.60 132.00v21.10" class="stroke"/>
<use x="752.60" y="129.00" xlink:href="#hd"/>
<path d="M749.10 129.00v21.00" class="stroke"/>
</g>
</svg>
